<svg width="107" height="107" viewBox="0 0 107 107" fill="none" xmlns="http://www.w3.org/2000/svg">
<rect width="107" height="107" rx="10" fill="#DDFBF8"/>
<path d="M52.9959 73.7751C53.7374 73.7751 54.4582 73.7362 55.1582 73.6584C55.8582 73.5806 56.5387 73.4589 57.1998 73.2931L54.2248 68.8167H45.5915V66.3473C45.5915 64.9891 46.0742 63.8264 47.0395 62.8592C48.0048 61.892 49.1652 61.4084 50.5207 61.4084H55.4498V54.0001H50.5498C49.8887 54.0001 49.3054 53.7473 48.7998 53.2417C48.2943 52.7362 48.0415 52.1529 48.0415 51.4917V46.5334H46.9438C45.8867 46.5334 44.979 46.1737 44.2207 45.4542C43.4623 44.7348 43.0832 43.8406 43.0832 42.7717C43.0832 42.4017 43.1415 42.032 43.2582 41.6626C43.3748 41.2931 43.5304 40.9529 43.7248 40.6417L47.5748 34.9834C43.4137 36.1501 39.9818 38.4725 37.279 41.9507C34.5762 45.4289 33.2248 49.4453 33.2248 54.0001H35.6748V51.4917C35.6748 50.8306 35.9179 50.257 36.404 49.7709C36.8901 49.2848 37.4637 49.0417 38.1248 49.0417H43.0832C43.7443 49.0417 44.3276 49.2848 44.8332 49.7709C45.3387 50.257 45.5915 50.8306 45.5915 51.4917V54.0001C45.5915 54.6612 45.3387 55.2348 44.8332 55.7209C44.3276 56.207 43.7443 56.4501 43.0832 56.4501V58.9432C43.0832 60.3145 42.5989 61.4765 41.6303 62.4292C40.6618 63.382 39.4974 63.8584 38.1373 63.8584H35.8498C37.5998 66.8529 39.9784 69.2542 42.9856 71.0626C45.9928 72.8709 49.3296 73.7751 52.9959 73.7751ZM71.7832 60.0667C72.0943 59.0945 72.3373 58.104 72.5123 57.0952C72.6873 56.0864 72.7748 55.0467 72.7748 53.976C72.7748 49.3643 71.3755 45.2952 68.5768 41.7686C65.7781 38.2421 62.2386 35.922 57.9582 34.8084V41.6053C59.3193 41.6053 60.4845 42.0893 61.4537 43.0574C62.423 44.0255 62.9077 45.1892 62.9077 46.5485V51.4917C63.6913 51.4917 64.404 51.5987 65.0457 51.8126C65.6873 52.0265 66.2804 52.4056 66.8248 52.9501L71.7832 60.0667ZM53.0154 77.3334C49.7979 77.3334 46.7743 76.7209 43.9445 75.4959C41.1147 74.2709 38.6401 72.5987 36.5207 70.4792C34.4012 68.3598 32.729 65.8837 31.504 63.051C30.279 60.2184 29.6665 57.1917 29.6665 53.9709C29.6665 50.7502 30.279 47.7235 31.504 44.8908C32.729 42.0581 34.4012 39.5917 36.5207 37.4917C38.6401 35.3917 41.1162 33.7292 43.9489 32.5042C46.7816 31.2792 49.8083 30.6667 53.029 30.6667C56.2497 30.6667 59.2764 31.2792 62.1091 32.5042C64.9418 33.7292 67.4082 35.3917 69.5082 37.4917C71.6082 39.5917 73.2707 42.0612 74.4957 44.9001C75.7207 47.739 76.3332 50.7671 76.3332 53.9846C76.3332 57.202 75.7207 60.2256 74.4957 63.0554C73.2707 65.8852 71.6082 68.3562 69.5082 70.4685C67.4082 72.5808 64.9387 74.253 62.0998 75.4852C59.2609 76.7173 56.2328 77.3334 53.0154 77.3334Z" fill="#62EBDE"/>
</svg>
