<svg width="107" height="107" viewBox="0 0 107 107" fill="none" xmlns="http://www.w3.org/2000/svg">
<rect width="107" height="107" rx="10" fill="#E7D9F8"/>
<path d="M52.9964 73.7751C53.7379 73.7751 54.4587 73.7362 55.1587 73.6584C55.8587 73.5806 56.5392 73.4589 57.2003 73.2931L54.2253 68.8167H45.592V66.3473C45.592 64.9891 46.0746 63.8264 47.0399 62.8592C48.0052 61.892 49.1656 61.4084 50.5212 61.4084H55.4503V54.0001H50.5503C49.8892 54.0001 49.3059 53.7473 48.8003 53.2417C48.2948 52.7362 48.042 52.1529 48.042 51.4917V46.5334H46.9443C45.8872 46.5334 44.9795 46.1737 44.2212 45.4542C43.4628 44.7348 43.0837 43.8406 43.0837 42.7717C43.0837 42.4017 43.142 42.032 43.2587 41.6626C43.3753 41.2931 43.5309 40.9529 43.7253 40.6417L47.5753 34.9834C43.4142 36.1501 39.9823 38.4725 37.2795 41.9507C34.5767 45.4289 33.2253 49.4453 33.2253 54.0001H35.6753V51.4917C35.6753 50.8306 35.9184 50.257 36.4045 49.7709C36.8906 49.2848 37.4642 49.0417 38.1253 49.0417H43.0837C43.7448 49.0417 44.3281 49.2848 44.8337 49.7709C45.3392 50.257 45.592 50.8306 45.592 51.4917V54.0001C45.592 54.6612 45.3392 55.2348 44.8337 55.7209C44.3281 56.207 43.7448 56.4501 43.0837 56.4501V58.9432C43.0837 60.3145 42.5994 61.4765 41.6308 62.4292C40.6622 63.382 39.4979 63.8584 38.1378 63.8584H35.8503C37.6003 66.8529 39.9789 69.2542 42.9861 71.0626C45.9933 72.8709 49.3301 73.7751 52.9964 73.7751ZM71.7837 60.0667C72.0948 59.0945 72.3378 58.104 72.5128 57.0952C72.6878 56.0864 72.7753 55.0467 72.7753 53.976C72.7753 49.3643 71.376 45.2952 68.5773 41.7686C65.7786 38.2421 62.239 35.922 57.9587 34.8084V41.6053C59.3198 41.6053 60.485 42.0893 61.4542 43.0574C62.4235 44.0255 62.9082 45.1892 62.9082 46.5485V51.4917C63.6918 51.4917 64.4045 51.5987 65.0462 51.8126C65.6878 52.0265 66.2809 52.4056 66.8253 52.9501L71.7837 60.0667ZM53.0158 77.3334C49.7984 77.3334 46.7748 76.7209 43.945 75.4959C41.1152 74.2709 38.6406 72.5987 36.5212 70.4792C34.4017 68.3598 32.7295 65.8837 31.5045 63.051C30.2795 60.2184 29.667 57.1917 29.667 53.9709C29.667 50.7502 30.2795 47.7235 31.5045 44.8908C32.7295 42.0581 34.4017 39.5917 36.5212 37.4917C38.6406 35.3917 41.1167 33.7292 43.9494 32.5042C46.7821 31.2792 49.8088 30.6667 53.0295 30.6667C56.2502 30.6667 59.2769 31.2792 62.1096 32.5042C64.9423 33.7292 67.4087 35.3917 69.5087 37.4917C71.6087 39.5917 73.2712 42.0612 74.4962 44.9001C75.7212 47.739 76.3337 50.7671 76.3337 53.9846C76.3337 57.202 75.7212 60.2256 74.4962 63.0554C73.2712 65.8852 71.6087 68.3562 69.5087 70.4685C67.4087 72.5808 64.9392 74.253 62.1003 75.4852C59.2614 76.7173 56.2333 77.3334 53.0158 77.3334Z" fill="#8B45DE"/>
</svg>
