<svg width="40" height="32" viewBox="0 0 40 32" fill="none" xmlns="http://www.w3.org/2000/svg">
<path d="M0 6.50067V2.65333C0 1.97526 0.3 1.36352 0.9 0.818111C1.5 0.272704 2.2 0 3 0H37C37.7667 0 38.4583 0.272704 39.075 0.818111C39.6917 1.36352 40 1.97526 40 2.65333V6.50067H37V2.65333H3V6.50067H0ZM12.5 31.84V28.3022H3C2.2 28.3022 1.5 28.0295 0.9 27.4841C0.3 26.9387 0 26.327 0 25.6489V21.5362H3V25.6489H37V21.5362H40V25.6489C40 26.327 39.6917 26.9387 39.075 27.4841C38.4583 28.0295 37.7667 28.3022 37 28.3022H27.5V31.84H12.5ZM4.2 14.1511L10.1 8.93289L8 7.07556L0 14.1511L8 21.2267L10.1 19.3693L4.2 14.1511ZM35.8 14.1511L29.9 19.3693L32 21.2267L40 14.1511L32 7.07556L29.9 8.93289L35.8 14.1511Z" fill="black"/>
</svg>
