<svg width="36" height="33" viewBox="0 0 36 33" fill="none" xmlns="http://www.w3.org/2000/svg">
<path d="M8.3441 5.16451C7.64803 5.16451 7.05833 5.37077 6.575 5.78331C6.09167 6.19583 5.85 6.69675 5.85 7.2861C5.85 7.87542 6.09363 8.37468 6.5809 8.78389C7.06813 9.1931 7.6598 9.39771 8.3559 9.39771C9.05197 9.39771 9.64167 9.19144 10.125 8.7789C10.6083 8.36639 10.85 7.86546 10.85 7.27611C10.85 6.68679 10.6064 6.18753 10.1191 5.77832C9.63187 5.36911 9.0402 5.16451 8.3441 5.16451ZM8.3441 22.69C7.64803 22.69 7.05833 22.8962 6.575 23.3088C6.09167 23.7213 5.85 24.2222 5.85 24.8116C5.85 25.4009 6.09363 25.9001 6.5809 26.3093C7.06813 26.7186 7.6598 26.9232 8.3559 26.9232C9.05197 26.9232 9.64167 26.7169 10.125 26.3044C10.6083 25.8918 10.85 25.3909 10.85 24.8016C10.85 24.2122 10.6064 23.713 10.1191 23.3038C9.63187 22.8946 9.0402 22.69 8.3441 22.69ZM1.7 0H34.25C34.7833 0 35.2083 0.134051 35.525 0.402154C35.8417 0.670257 36 1.0345 36 1.49487V12.8689C36 13.3607 35.8417 13.7729 35.525 14.1055C35.2083 14.4382 34.7833 14.6045 34.25 14.6045H1.7C1.2 14.6045 0.791667 14.4382 0.475 14.1055C0.158333 13.7729 0 13.3607 0 12.8689V1.49487C0 1.0345 0.158333 0.670257 0.475 0.402154C0.791667 0.134051 1.2 0 1.7 0ZM3 2.53992V12.0646H33V2.53992H3ZM1.7 17.4831H34.05C34.55 17.4831 35 17.6595 35.4 18.0123C35.8 18.365 36 18.7676 36 19.2199V30.3944C36 30.9588 35.8 31.3892 35.4 31.6855C35 31.9818 34.55 32.13 34.05 32.13H1.95C1.41667 32.13 0.958333 31.9818 0.575 31.6855C0.191667 31.3892 0 30.9588 0 30.3944V19.2199C0 18.7676 0.158333 18.365 0.475 18.0123C0.791667 17.6595 1.2 17.4831 1.7 17.4831ZM3 20.023V29.5901H33V20.023H3Z" fill="black"/>
</svg>
