<svg width="44" height="35" viewBox="0 0 44 35" fill="none" xmlns="http://www.w3.org/2000/svg">
<path d="M2 12.1528V2.91667C2 2.13889 2.3 1.45833 2.9 0.875C3.5 0.291667 4.2 0 5 0H39C39.8 0 40.5 0.291667 41.1 0.875C41.7 1.45833 42 2.13889 42 2.91667V12.1528H39V2.91667H5V12.1528H2ZM5 29.1667C4.2 29.1667 3.5 28.875 2.9 28.2917C2.3 27.7083 2 27.0278 2 26.25V15.0694H5V26.25H39V15.0694H42V26.25C42 27.0278 41.7 27.7083 41.1 28.2917C40.5 28.875 39.8 29.1667 39 29.1667H5ZM0 35V32.0833H44V35H0ZM2 15.0694V12.1528H14C14.272 12.1528 14.5317 12.2176 14.779 12.3472C15.0264 12.4769 15.2167 12.6713 15.35 12.9306L18.1 18.375L24.65 7.14583C24.7833 6.88657 24.975 6.70023 25.225 6.58681C25.475 6.47338 25.7353 6.41667 26.006 6.41667C26.2766 6.41667 26.5349 6.47338 26.781 6.58681C27.027 6.70023 27.2167 6.88657 27.35 7.14583L29.8776 12.1528H42V15.0694H28.95C28.675 15.0694 28.4125 15.0046 28.1625 14.875C27.9125 14.7454 27.725 14.5509 27.6 14.2917L25.9 10.9375L19.35 22.0694C19.2259 22.3287 19.0397 22.5231 18.7915 22.6528C18.5433 22.7824 18.2826 22.8472 18.0096 22.8472C17.7365 22.8472 17.475 22.7824 17.225 22.6528C16.975 22.5231 16.7833 22.3287 16.65 22.0694L13.05 15.0694H2Z" fill="black"/>
</svg>
