<svg width="88" height="65" viewBox="0 0 88 65" fill="none" xmlns="http://www.w3.org/2000/svg">
<path opacity="0.45" d="M21.4 64.6C17.4 64.6 13.7333 63.5333 10.4 61.4C7.2 59.2667 4.66667 56.3333 2.8 52.6C0.933334 48.8667 5.66244e-07 44.5333 5.66244e-07 39.6C5.66244e-07 35.3333 0.8 31.2 2.4 27.2C4 23.0667 6.26667 19.2667 9.2 15.8C12.2667 12.2 15.8 9.06666 19.8 6.39999C23.8 3.59999 28.1333 1.6 32.8 0.399995L42 11.6C36.4 14 31.8667 17 28.4 20.6C25.0667 24.0667 23.4 27 23.4 29.4C23.4 30.8667 23.8667 32.3333 24.8 33.8C25.8667 35.1333 27.4 36.4 29.4 37.6C32.4667 39.8667 34.6 42.0667 35.8 44.2C37 46.3333 37.6 48.6667 37.6 51.2C37.6 55.3333 36.0667 58.6 33 61C30.0667 63.4 26.2 64.6 21.4 64.6ZM67.4 64.6C63.4 64.6 59.7333 63.5333 56.4 61.4C53.2 59.2667 50.6667 56.3333 48.8 52.6C46.9333 48.8667 46 44.5333 46 39.6C46 35.3333 46.8 31.2 48.4 27.2C50 23.0667 52.2667 19.2667 55.2 15.8C58.2667 12.2 61.8 9.06666 65.8 6.39999C69.8 3.59999 74.1333 1.6 78.8 0.399995L88 11.6C82.4 14 77.8667 17 74.4 20.6C71.0667 24.0667 69.4 27 69.4 29.4C69.4 30.8667 69.8667 32.3333 70.8 33.8C71.8667 35.1333 73.4 36.4 75.4 37.6C78.4667 39.8667 80.6 42.0667 81.8 44.2C83 46.3333 83.6 48.6667 83.6 51.2C83.6 55.3333 82.0667 58.6 79 61C76.0667 63.4 72.2 64.6 67.4 64.6Z" fill="#808080" fill-opacity="0.16"/>
</svg>
